# xmcd
#
# Track frame offsets: 
#        150
#        19049
#        36513
#        56118
#        75515
#        85648
#        101070
#        117760
#        139897
#        157461
#        171440
#        187902
#        204720
#        231670
#        240274
#        268660
#        287210
#
# Disc length: 4007 seconds
#
# Revision: 0
# Processed by: cddbd v1.5.2PL0 Copyright (c) Steve Scherf et al.
# Submitted via: ExactAudioCopyFreeDBPlugin 1.0
#
DISCID=f70fa511
DTITLE=Wizz Jones - Huldenburg Blues
DYEAR=2011
DGENRE=Acoustic
TTITLE0=Hey Hey - Shuckin' Sugar
TTITLE1=Sometimes In This Life Are Beautiful
TTITLE2=Corrine
TTITLE3=Got The Blues, Can't Be Satisfied - Mississippi John
TTITLE4=Nobody Knows You When You're Down and Out
TTITLE5=Moving On Song
TTITLE6=Burma
TTITLE7=You've Changed - Glory Of Love
TTITLE8=Dallas Blues
TTITLE9=National Seven
TTITLE10=The Father's Song
TTITLE11=Keep Your Lamp Trimmed and Burning
TTITLE12=Massacre At Beziers
TTITLE13=Angi
TTITLE14=See How The Time Is Flying - St James Infirmary
TTITLE15=I Hold No Grudge - Who Will Your Next Fool Be?
TTITLE16=San Francisco Bay Blues
EXTD=
EXTT0=
EXTT1=
EXTT2=
EXTT3=
EXTT4=
EXTT5=
EXTT6=
EXTT7=
EXTT8=
EXTT9=
EXTT10=
EXTT11=
EXTT12=
EXTT13=
EXTT14=
EXTT15=
EXTT16=
PLAYORDER=
